<?xml version="1.0" encoding="utf-8"?>
<!-- Generator: Adobe Illustrator 24.0.2, SVG Export Plug-In . SVG Version: 6.00 Build 0)  -->
<svg version="1.1" id="Layer_1" xmlns="http://www.w3.org/2000/svg" xmlns:xlink="http://www.w3.org/1999/xlink" x="0px" y="0px"
	 viewBox="0 0 100 100" style="enable-background:new 0 0 100 100;" xml:space="preserve">
<style type="text/css">
	.st0{fill:#1C048A;}
	.st1{fill:#FFFFFF;}
</style>
<rect y="0" class="st0" width="100" height="100"/>
<g>
	<path class="st1" d="M7.7,50.1c0-6,0-12,0-18c0-0.1,0-0.2,0-0.2c0-1.3,0.5-1.8,1.8-2c0.5-0.1,1.1-0.1,1.6,0c1,0.1,1.5,0.7,1.5,1.7
		c0,2.5,0,5.1,0,7.6c0,2.6,0,5.1,0,7.7c0,0.2,0,0.4,0,0.6c0,0.1,0,0.2,0.1,0.2c0.1,0,0.2,0,0.2-0.1c0.5-0.6,1-1.2,1.5-1.8
		c3.1-3.8,6.1-7.6,9.2-11.3c1-1.2,2-2.3,2.9-3.5c0.6-0.8,1.4-1.2,2.4-1.1c0.6,0,1.2,0,1.7,0.3c1.1,0.4,1.2,1.4,0.7,2.1
		c-0.6,0.7-1.1,1.4-1.7,2.1c-2.2,2.5-4.5,5.1-6.7,7.6c-1.8,2-3.5,4-5.3,6c-0.9,1-0.8,0.7,0,1.7c3.2,4,6.5,8,9.8,12
		c1.6,1.9,3.1,3.8,4.6,5.7c0.3,0.4,0.4,0.7,0.4,1.2c0,0.5-0.2,0.9-0.7,1.1c-0.3,0.1-0.6,0.2-0.9,0.3c-0.7,0-1.4,0-2.1,0
		c-0.8-0.1-1.3-0.5-1.8-1.1c-1.5-2-3-4.1-4.5-6.1c-2.1-2.8-4.2-5.6-6.3-8.5c-1-1.3-1.9-2.6-2.9-3.9c-0.1-0.2-0.3-0.3-0.4-0.5
		c0,0-0.2,0.1-0.2,0.1c0,0.2,0,0.5,0,0.7c0,4.8,0,9.7,0,14.5c0,1.1,0,2.1,0,3.2c0,1-0.4,1.4-1.4,1.5c-0.6,0-1.3,0-1.9,0
		c-0.2,0-0.5-0.1-0.7-0.1c-0.6-0.2-0.9-0.5-0.9-1.1c0-0.4,0-0.9,0-1.3C7.7,61.7,7.7,55.9,7.7,50.1C7.7,50.1,7.7,50.1,7.7,50.1z"/>
	<path class="st1" d="M92.3,68.4c-0.1-0.5-0.3-1-0.5-1.5c-1.6-4.3-3.2-8.5-4.7-12.8c-2.2-6-4.4-11.9-6.6-17.9
		c-0.6-1.6-1.2-3.2-1.7-4.7c-0.3-0.8-0.8-1.4-1.7-1.4c-0.7-0.1-1.4-0.1-2.2,0c-1,0.1-1.6,0.6-2,1.6c-0.8,2.4-1.7,4.7-2.6,7.1
		c-1.7,4.5-3.3,9-5,13.5c-1.8,4.9-3.6,9.8-5.4,14.7c-0.2,0.6-0.4,1.2-0.5,1.8c-0.1,0.6,0.1,1,0.7,1.2c0.3,0.1,0.6,0.2,0.9,0.2
		c0.6,0,1.1,0,1.7,0c1,0,1.6-0.5,1.9-1.5c1-2.9,2-5.8,3-8.7c0.3-0.8,0.3-0.8,1.2-0.8c3,0,6,0,9.1,0c1.8,0,3.7,0,5.5,0
		c0.6,0,0.6,0,0.9,0.6c0.4,1.1,0.8,2.2,1.2,3.2c0.7,1.9,1.4,3.8,2,5.7c0.4,1,1.1,1.5,2.1,1.5c0.2,0,0.4,0,0.6,0c0,0,0,0,0,0
		c0.5-0.1,1-0.1,1.4-0.2C92.2,69.7,92.5,69.2,92.3,68.4z M82,54.7c-0.2,0-0.4,0-0.6,0c-1.9,0-3.8,0-5.7,0c0,0,0,0,0,0
		c-1.9,0-3.8,0-5.7,0c-0.2,0-0.4,0-0.6,0c-0.3,0-0.3-0.1-0.3-0.4c0.1-0.3,0.2-0.5,0.3-0.8c1.5-4.3,3.1-8.6,4.6-12.9
		c0.5-1.4,1-2.8,1.5-4.1c0-0.1,0.1-0.1,0.1-0.2c0.1,0.1,0.2,0.1,0.2,0.2c0.3,0.7,0.5,1.4,0.8,2c1.9,5.1,3.7,10.2,5.6,15.3
		c0.1,0.2,0.1,0.3,0.2,0.5C82.3,54.6,82.3,54.7,82,54.7z"/>
	<path class="st1" d="M60.9,38.4c-0.9-3.4-2.9-5.8-6.1-7.1c-1.8-0.8-3.7-1.1-5.7-1.1c-2.9-0.1-5.7,0-8.6,0c-0.4,0-0.7,0.1-1.1,0.2
		C38.5,30.5,38,31.1,38,32c0,0.3,0,0.7,0,1c0,5.8,0,11.5,0,17.3c0,6,0,12,0,18c0,0.2,0,0.3,0,0.5c0,0.5,0.3,0.8,0.7,1
		c0.2,0.1,0.5,0.2,0.8,0.2c0.7,0,1.3,0,2,0c0.2,0,0.4-0.1,0.6-0.1c0.5-0.2,0.8-0.5,0.8-1c0-0.3,0-0.6,0-1c0-4.2,0-8.4,0-12.7
		c0-0.9,0-0.8,0.8-0.8c1.6,0,3.2,0,4.8,0c2.3-0.1,4.4-0.5,6.5-1.6c2.8-1.5,4.7-3.7,5.7-6.6C61.6,43.6,61.6,41,60.9,38.4z M55.8,45.2
		c-0.4,1.3-1.2,2.4-2.3,3.2c-1,0.7-2.2,1.2-3.4,1.5c-1.4,0.2-2.7,0.2-4.1,0.2c-0.9,0-1.8,0-2.7,0c-0.4,0-0.4-0.1-0.4-0.4
		c0-0.2,0-0.5,0-0.7c0-4.5,0-9.1,0-13.6c0-0.2,0-0.3,0-0.5c0-0.2,0.1-0.3,0.3-0.3c0.2,0,0.3,0,0.5,0c0.9,0,1.9,0,2.8,0
		c1.4,0,2.8,0,4.2,0.2c1,0.2,2,0.6,2.9,1.1c1.2,0.7,1.9,1.8,2.3,3C56.4,40.9,56.5,43,55.8,45.2z"/>
</g>
</svg>
