<svg id="Layer_1" data-name="Layer 1" xmlns="http://www.w3.org/2000/svg" viewBox="0 0 1962.62 500.74">
  <title>logo</title>
  <g>
    <path d="M0,252.58V28.73c0-1,0-2,0-3C-.4,10.09,6.39,2.79,22.38.73A79.52,79.52,0,0,1,42.3.72c12.51,1.55,19.09,8.86,19,21.37-.24,31.64-.08,63.29-.07,94.93q0,48,.07,95.93c0,2.34,0,4.67.17,7,.07.85.54,2.13,1.13,2.33a3,3,0,0,0,2.49-.91c6.38-7.25,12.86-14.42,19-21.91q57.36-70.55,114.58-141.2c12-14.74,24.31-29.17,36.16-44,7.92-9.9,18-14.34,30.46-14.14,7.37.13,14.58.58,21.6,3.26,13.95,5.32,15.23,17.83,8.32,26.33-7.14,8.78-14,17.84-21.41,26.35C246.09,87.63,218.2,119,190.47,150.49c-22,25-44,50-65.81,75.17-10.68,12.36-10.54,9.11-.28,21.8Q185,322.46,246,397.1c19.32,23.77,38.51,47.66,57.87,71.4A21.48,21.48,0,0,1,309,483.19c-.16,6.18-2.7,11.07-8.62,13.43-3.67,1.46-7.58,3-11.45,3.18a198.22,198.22,0,0,1-25.91-.13c-9.45-.75-16.76-5.83-22.41-13.46q-28.21-38.15-56.58-76.2-39.45-52.85-79-105.61c-12-16-23.7-32.18-35.56-48.26a63.66,63.66,0,0,0-5-6.18c-.25-.26-2.6.63-2.66,1.15a74.43,74.43,0,0,0-.42,9Q61.3,350.52,61.22,441c0,13.32,0,26.65-.14,40-.13,12.57-4.71,17.88-17,18.78a236.36,236.36,0,0,1-24,.12,36.85,36.85,0,0,1-8.78-1.75c-6.87-1.91-10.76-6.38-11-13.66-.17-5.33-.28-10.66-.28-16Q0,360.5.07,252.58Z" style="fill: #1c048a"/>
    <path d="M1074.62,408.28q0-37.95,0-75.91a58,58,0,0,1,.18-7c.64-5.33,3.45-8.63,8.87-9.17a104.46,104.46,0,0,1,15.92,0c3.52.18,6.21,2.22,8.12,5.17,2.53,3.91,5.18,7.76,7.49,11.79q32.51,56.73,64.93,113.5c1.78,3.1,4.07,5.91,6.12,8.85,3.27-3.31,1.87-7.51,1.87-11.28.08-36.29,0-72.58-.08-108.86,0-4.33,0-8.67.3-13,.36-4.47,1.57-5.83,6.06-6.6a28.15,28.15,0,0,1,8.88-.16c5.32.8,6.62,2.51,7,7.95.1,1.32.06,2.66.06,4q0,75.9-.05,151.81a70.46,70.46,0,0,1-.43,10c-.76,5.35-3.14,7.75-8.44,8.22-9.51.84-17.93-1.28-23.42-10-2.66-4.22-5.36-8.42-7.83-12.76q-33.57-59-67-118a11.82,11.82,0,0,0-1-1.75c-1.2-1.47-2.91-4.3-3.65-4.08-3.11.95-1.24,3.84-1.25,5.87-.09,43.28,0,86.56-.13,129.84,0,9.38-1.85,11.1-11,11a36.55,36.55,0,0,1-6.9-.84,5.19,5.19,0,0,1-4.5-5.67c0-2.33,0-4.66,0-7V408.28Z" style="fill: #1c048a"/>
    <path d="M1120.38,125.32q0,57.44,0,114.87c0,9.93.41,9.91-9.86,9.86-11-.05-22,0-33-.19-4.41-.06-5.13-.89-5.41-5.29-.18-2.65-.09-5.33-.09-8q0-112.87,0-225.75C1072.1-.74,1071.74,0,1083,0c10.66,0,21.32,0,32,.2,4.6.08,5.15.74,5.38,5.23.16,3.32.09,6.66.09,10V125.32Z" style="fill: #1c048a"/>
    <path d="M1213,103.36V21.45c0-4.66,0-9.32.07-14,.16-7.14.2-7.25,7.22-7.31,12-.11,24-.16,36,0,5.31,0,5.72.64,5.94,5.63.07,1.67,0,3.33,0,5q0,91.89,0,183.79c0,11.17.93,11.13-10.68,11.13-11,0-22,0-33-.16-4.61-.09-5.19-.82-5.39-5.28-.21-4.65-.17-9.32-.17-14q0-41.44,0-82.9Z" style="fill: #1c048a"/>
    <path d="M1945.33,497.06c-.67,0-1.34-.05-2,0-7.49.64-12.36-2.57-16-9.27-9.46-17.57-19.36-34.91-29.23-52.26-2.43-4.27-5.41-8.21-8.14-12.3-5.17,2.67-6.07,8.29-8.62,12.72-10.47,18.16-20.86,36.37-31,54.7-2.75,5-6.24,7.5-12,6.89-4-.42-8-.22-11.91-.82-3.44-.52-4.45-2.62-2.94-5.78,2-4.2,4.24-8.3,6.62-12.3,13.41-22.6,26.69-45.28,40.51-67.63,3.33-5.38,3.06-9.13-.15-14.29-13.69-22.05-27-44.36-40.34-66.6a90.34,90.34,0,0,1-4.67-8.8c-1.25-2.73.17-5,2.76-5.21a98.42,98.42,0,0,1,16.82,0c1.92.17,4,2.3,5.34,4a77,77,0,0,1,5.95,9.21q13.58,23.28,27.06,46.62c1.33,2.3,2.57,4.66,4,6.9,1.59,2.51,2.94,2.62,4.46.37,1.31-1.92,2.41-4,3.59-6l32-54.11c1.86-3.14,3.4-7.13,7.55-7.3a109.12,109.12,0,0,1,16.73,1c.74.09,2,2.89,1.65,4a44.76,44.76,0,0,1-4.23,9c-9.53,16-19.17,32-28.79,47.92-4.46,7.4-8.83,14.87-13.48,22.17-1.69,2.66-1.45,4.82.07,7.34q10.29,17.1,20.43,34.29,12.91,21.94,25.7,43.95a44.7,44.7,0,0,1,3.15,6.21c1,2.7-.07,4.59-3,5-2.62.39-5.3.39-8,.56Z" style="fill: #1c048a"/>
    <path d="M1400.63,85.39v74.78c0,1,0,2,0,3-.24,5-.6,5.52-6,5.6-9.31.14-18.62,0-27.93,0-3,0-6,.11-9-.06-4.36-.24-4.87-.84-5.13-5.44-.1-1.66,0-3.32,0-5q0-73.8,0-147.59c0-10.9-.52-10.58,10.09-10.57,9.64,0,19.29-.13,28.93-.08,9,.05,9.06.12,9.09,9.55q.08,25.92.06,51.85,0,12,0,23.94Z" style="fill: #1c048a"/>
    <path d="M1537.38,459.31c0-9-.1-18,0-27a28,28,0,0,0-3.14-13.41q-22-43.69-43.69-87.51c-1.18-2.38-2.42-4.75-3.43-7.21-2.57-6.29-1.33-8.19,5.67-8.84,1.65-.15,3.33,0,5-.08,7.08-.47,11.66,2.31,14.81,9.05,9.29,19.88,19.15,39.51,28.79,59.23,2,4.19,4,8.4,6.21,12.52,1.24,2.35,3.25,2.47,4.48.2,2.21-4.09,4.14-8.33,6.18-12.52q14.37-29.62,28.78-59.23c1.72-3.53,3.1-8.09,7.71-8.41,5.89-.41,11.85.14,17.76.57.63.05,1.71,2.17,1.54,3.14a21.38,21.38,0,0,1-2.22,5.49q-23.61,46.79-47.31,93.51a32.27,32.27,0,0,0-3.64,15.32c.15,17.31.07,34.62.07,51.93,0,10-2.46,12.38-12.33,11.55a36.9,36.9,0,0,1-5.86-1.11c-3.72-1-5.45-3.35-5.42-7.27.09-10,0-20,0-30Z" style="fill: #1c048a"/>
    <path d="M1542.64,69.14q0,28.94,0,57.87c0,2.33,0,4.66-.08,7a3.39,3.39,0,0,1-3.73,3.67q-20,.09-39.92.09c-2.77,0-4.37-1.25-4.35-4.18,0-1.67,0-3.33,0-5q0-59.37,0-118.73c0-2,0-4,.06-6,.06-2.42,1.39-3.64,3.74-3.65q20-.11,39.91-.13c2.81,0,4.31,1.32,4.31,4.2,0,2,0,4,0,6V69.14Z" style="fill: #1c048a"/>
    <path d="M1670.78,414.69q0-34.47,0-68.93c0-2.33.22-4.74-.34-6.95a5,5,0,0,0-3.11-3.13,40.4,40.4,0,0,0-8-.3c-11,0-22,.06-33,.06-3.32,0-7,.34-8.55-3.55a15.87,15.87,0,0,1-.25-12.6,6,6,0,0,1,3.75-2.82,29.72,29.72,0,0,1,7-.4q55,0,109.91,0h1c10.19.1,12.45,2.6,11.27,12.43-.61,5-2.33,6.85-7.9,6.92-11.32.14-22.64-.07-34-.09-16.62,0-15-1.74-15,14.75q0,66.44-.23,132.86c0,2,0,4-.18,6-.51,6.24-1.75,7.61-7.66,8.36a23,23,0,0,1-5,.08c-7.63-.65-9.67-2.8-9.71-10.74-.08-18,0-36,0-53.94v-18Z" style="fill: #1c048a"/>
    <path d="M1410.7,404.16q0-38.43,0-76.85c0-10.23,3-12.93,13.08-12.25,7.06.46,9,2.45,9.28,10.05.23,7.32.19,14.64.19,22q0,60.38-.11,120.76c0,1-.05,2,0,3,.22,7,.47,7.42,7.38,7.43q28,.08,55.9-.13c7.28-.05,10.18-.48,9.82,10.65-.22,7-1.71,8.69-9,8.77-18.3.2-36.6.18-54.9.23-6,0-12,.05-18-.11-10.89-.3-13.59-3-13.61-13.66C1410.65,457.39,1410.7,430.77,1410.7,404.16Z" style="fill: #1c048a"/>
    <path d="M1633,45.72c0-13,0-25.94,0-38.91,0-6.11.41-6.64,5.88-6.69,12.64-.1,25.28,0,37.92.14,4.6.07,5.27.76,5.41,5.21.2,6.32.12,12.64.13,19q0,28.44,0,56.88c0,2,.06,4,0,6-.29,4.87-.84,5.52-6.06,5.65-6.65.15-13.3,0-20,0-5.32,0-10.64.06-16-.07-7.28-.17-7.36-.23-7.39-7.23-.06-13.31,0-26.61,0-39.92Z" style="fill: #1c048a"/>
    <path d="M1772,406.2V335.41c0-2.66-.14-5.33,0-8,.25-3.83-1.2-8.47,3.24-10.77,5.32-2.75,11-2.41,16.37,0a6,6,0,0,1,2.8,3.76,38.75,38.75,0,0,1,.52,7.93q.2,77.26.34,154.53a14.66,14.66,0,0,1,0,2c-.5,3.77,1.46,8.69-2.79,10.87a19.22,19.22,0,0,1-17.34,0,5.79,5.79,0,0,1-2.64-3.85,54.45,54.45,0,0,1-.4-9q0-38.38,0-76.76Z" style="fill: #1c048a"/>
    <path d="M1823.12,27.63c0,7.29,0,14.59,0,21.88,0,2.72-1.32,4.4-4.2,4.4q-20.39,0-40.78-.08c-2.31,0-3.63-1.31-3.91-3.61a16.47,16.47,0,0,1-.14-2c0-14.26-.12-28.51,0-42.77,0-4.49.82-5.23,5.27-5.27q19.4-.18,38.8,0c4.32.05,4.95.81,5,5.52.15,7.29,0,14.59,0,21.88Z" style="fill: #1c048a"/>
    <path d="M1937.26,32.31c-6.63,0-13.26,0-19.89,0-3.26,0-4.83-1.38-4.81-4.73q.11-11.43,0-22.87c0-3.49,1.85-4.56,5-4.56,13.26,0,26.52-.14,39.78,0,4.54,0,5.2.76,5.27,5.22.13,7.62,0,15.25-.06,22.87,0,2.94-1.6,4.06-4.36,4.05-7,0-13.93,0-20.89,0Z" style="fill: #1c048a"/>
    <path d="M1053.91,479.46c-1.81-6.4-3.91-12.73-6.22-19q-29.45-79.58-59-159.11Q947.32,190,906,78.61C898.7,59,891.3,39.33,884.35,19.55c-3.7-10.54-10.55-17-21.59-18-8.9-.8-18-1.31-26.84-.35-12.07,1.32-20.38,7.67-24.67,20C801,50.79,789.78,80,779,109.34q-31.11,84.29-62.22,168.57-33.79,91.26-67.68,182.51a166.41,166.41,0,0,0-6.5,22c-1.55,7.09,1.7,12.53,8.39,15.07a36,36,0,0,0,10.66,2.38c7,.39,14,.39,21,.14,12-.41,19.61-6.58,23.52-18.08,12.3-36.23,24.94-72.36,37.35-108.56,3.58-10.43,3.43-10.5,14.49-10.5l112.94-.07q34.49,0,69,0c7.86,0,8,.1,10.7,7.52,4.92,13.43,9.68,26.93,14.53,40.39,8.47,23.48,17.21,46.86,25.34,70.46,4.41,12.81,13.15,18.63,26.22,19,2.66.07,5.33,0,8,0,0,.2,0,.4.05.6,5.94-.63,12-.72,17.81-2C1053,496.4,1056.81,489.8,1053.91,479.46ZM926.49,309.81c-2.65.21-5.32.15-8,.15H847.59v.08H776.67c-2.66,0-5.34,0-8-.14-3.31-.25-4.26-1.41-3.42-4.47s2.12-6.3,3.24-9.43q28.66-80.35,57.34-160.69,9.23-25.83,18.53-51.64a15.35,15.35,0,0,1,1.49-2.51c.85,1,2,1.82,2.49,3,3.21,8.39,6.28,16.82,9.37,25.25l69.62,190.17c.69,1.88,1.48,3.72,2,5.63C930.38,308.48,929.75,309.55,926.49,309.81Z" style="fill: #1c048a"/>
    <path d="M663.68,105.83c-10.64-42.06-36.21-71.95-76.34-89C564.65,7.25,540.72,3,516.26,2.55,480.63,1.91,445,2.1,409.34,2.14A51.13,51.13,0,0,0,395.6,4.09C384.55,7.22,378.32,15,377.35,26.42c-.36,4.31-.25,8.66-.25,13q0,107.91,0,215.81V479c0,2,.05,4,0,6-.09,6.13,3.23,10.05,8.52,12.28a28.83,28.83,0,0,0,9.6,2.5c8.3.35,16.63.28,24.94.06,2.59-.07,5.19-1.07,7.72-1.85,6.07-1.87,9.39-6.21,10.15-12.34a101.44,101.44,0,0,0,.48-12q.08-78.93.09-157.86c0-11-.42-10.12,10.49-10.12,20,0,40,.6,60,0,28.19-.92,55.36-6.19,80.81-19.48,34.88-18.2,58.29-46,70.8-82.84C671.51,171.32,671.93,138.45,663.68,105.83Zm-63.47,84.78a76.57,76.57,0,0,1-28.73,39.82,103.75,103.75,0,0,1-42.8,18.16c-16.85,3.09-33.81,2.74-50.77,2.95-11.32.14-22.65,0-34-.29-4.57-.1-5.09-.84-5.34-5.33-.17-3-.08-6-.08-9q0-84.88,0-169.78c0-2,0-4,0-6,.06-2.33,1.25-3.72,3.6-3.88,2-.14,4-.12,6-.12h34.95c17.32,0,34.62-.15,51.81,2.69,13,2.15,24.9,7.09,36.18,13.71,14.6,8.57,23.24,21.92,28.17,37.47C607.63,137.34,608.49,164.05,600.21,190.61Z" style="fill: #1c048a"/>
    <path d="M1387.8,491.46c-1.8-5.36-3.82-10.64-5.76-15.95q-26.88-73.59-53.73-147.18c-4.36-12-5.36-12.86-17.84-12.89-1,0-2,0-3,0-9.58.31-11.23,1.32-14.57,10.5q-28.85,79.23-57.52,158.53c-4.34,12-3.27,13.21,10,13,8.35-.13,9.7-1,12.48-8.63,4.1-11.25,8.11-22.53,12.16-33.8,2.7-7.51,2.71-7.61,10.53-7.65,19.31-.09,38.63-.08,58-.11,1,0,2,.08,3,0,3.87-.2,6.12,1.51,7.34,5.27,2.57,7.9,5.41,15.72,8.23,23.54,1.69,4.7,3.63,9.3,5.31,14,1.52,4.27,4.5,6.42,8.92,6.79,2,.17,4,.36,4.53.41,3.11,0,4.77,0,6.44,0a12.19,12.19,0,0,0,2-.25C1387.79,496.36,1388.91,494.77,1387.8,491.46Zm-53.75-62.37c-6.3.13-12.61,0-18.92,0h-6V429c-8,0-15.94.1-23.9,0-5.43-.09-6-.83-4.38-5.81q4.41-13.73,9.11-27.37,7.62-22.11,15.43-44.15a65.12,65.12,0,0,1,3.19-7.27,2.31,2.31,0,0,1,2,.11,14.23,14.23,0,0,1,1.64,3.61q12.29,36.28,24.52,72.58c.32.94.65,1.88.92,2.84C1339,428.13,1338.52,429,1334.05,429.09Z" style="fill: #1c048a"/>
  </g>
</svg>
