<?xml version="1.0" encoding="utf-8"?>
<!-- Generator: Adobe Illustrator 24.0.2, SVG Export Plug-In . SVG Version: 6.00 Build 0)  -->
<svg version="1.1" id="Layer_1" xmlns="http://www.w3.org/2000/svg" xmlns:xlink="http://www.w3.org/1999/xlink" x="0px" y="0px"
	 viewBox="0 0 1962.6 500.7" style="enable-background:new 0 0 1962.6 500.7;" xml:space="preserve">
<style type="text/css">
	.st0{fill:#1C048A;}
</style>
<title>logo</title>
<g>
	<path class="st0" d="M0,252.6V28.7c0-1,0-2,0-3c-0.4-15.6,6.4-22.9,22.4-25c6.6-0.8,13.3-0.8,19.9,0c12.5,1.5,19.1,8.9,19,21.4
		c-0.2,31.6-0.1,63.3-0.1,94.9c0,32,0,64,0.1,95.9c0,2.3,0,4.7,0.2,7c0.1,0.9,0.5,2.1,1.1,2.3c0.9,0.1,1.8-0.2,2.5-0.9
		c6.4-7.3,12.9-14.4,19-21.9c38.2-47,76.4-94.1,114.6-141.2c12-14.7,24.3-29.2,36.2-44c7.9-9.9,18-14.3,30.5-14.1
		c7.4,0.1,14.6,0.6,21.6,3.3c14,5.3,15.2,17.8,8.3,26.3c-7.1,8.8-14,17.8-21.4,26.4c-27.7,31.6-55.6,62.9-83.3,94.4
		c-22,25-44,50-65.8,75.2c-10.7,12.4-10.5,9.1-0.3,21.8c40.4,50,81,99.9,121.6,149.6c19.3,23.8,38.5,47.7,57.9,71.4
		c3.5,4.1,5.3,9.3,5.1,14.7c-0.2,6.2-2.7,11.1-8.6,13.4c-3.7,1.5-7.6,3-11.5,3.2c-8.6,0.5-17.3,0.5-25.9-0.1
		c-9.4-0.8-16.8-5.8-22.4-13.5c-18.8-25.4-37.7-50.8-56.6-76.2c-26.3-35.2-52.6-70.4-79-105.6c-12-16-23.7-32.2-35.6-48.3
		c-1.5-2.2-3.2-4.2-5-6.2c-0.3-0.3-2.6,0.6-2.7,1.1c-0.3,3-0.5,6-0.4,9c-0.1,60.3-0.1,120.6-0.2,180.9c0,13.3,0,26.6-0.1,40
		c-0.1,12.6-4.7,17.9-17,18.8c-8,0.4-16,0.5-24,0.1c-3-0.2-5.9-0.8-8.8-1.8c-6.9-1.9-10.8-6.4-11-13.7c-0.2-5.3-0.3-10.7-0.3-16
		C0,396.5,0,324.5,0,252.6L0,252.6z"/>
	<path class="st0" d="M1074.6,408.3c0-25.3,0-50.6,0-75.9c-0.1-2.3,0-4.7,0.2-7c0.6-5.3,3.4-8.6,8.9-9.2c5.3-0.4,10.6-0.4,15.9,0
		c3.5,0.2,6.2,2.2,8.1,5.2c2.5,3.9,5.2,7.8,7.5,11.8c21.7,37.8,43.3,75.7,64.9,113.5c1.8,3.1,4.1,5.9,6.1,8.9
		c3.3-3.3,1.9-7.5,1.9-11.3c0.1-36.3,0-72.6-0.1-108.9c0-4.3,0-8.7,0.3-13c0.4-4.5,1.6-5.8,6.1-6.6c2.9-0.5,5.9-0.6,8.9-0.2
		c5.3,0.8,6.6,2.5,7,8c0.1,1.3,0.1,2.7,0.1,4c0,50.6,0,101.2-0.1,151.8c0.1,3.3,0,6.7-0.4,10c-0.8,5.4-3.1,7.8-8.4,8.2
		c-9.5,0.8-17.9-1.3-23.4-10c-2.7-4.2-5.4-8.4-7.8-12.8c-22.4-39.3-44.7-78.7-67-118c-0.3-0.6-0.6-1.2-1-1.8
		c-1.2-1.5-2.9-4.3-3.7-4.1c-3.1,1-1.2,3.8-1.3,5.9c-0.1,43.3,0,86.6-0.1,129.8c0,9.4-1.8,11.1-11,11c-2.3-0.1-4.6-0.3-6.9-0.8
		c-2.8-0.4-4.8-2.9-4.5-5.7c0-2.3,0-4.7,0-7v-75.9H1074.6z"/>
	<path class="st0" d="M1915.5,125.3V15.4c0-3.3-0.1-6.7,0.1-10c0.2-4.5,0.8-5.1,5.4-5.2c10.7-0.2,21.3-0.2,32-0.2
		c11.3,0,10.9-0.7,11,10.8c0,75.3,0,150.5,0,225.8c0,2.7,0.1,5.4-0.1,8c-0.3,4.4-1,5.2-5.4,5.3c-11,0.2-22,0.1-33,0.2
		c-10.3,0.1-9.9,0.1-9.9-9.9C1915.6,201.9,1915.6,163.6,1915.5,125.3L1915.5,125.3z"/>
	<path class="st0" d="M1822.9,147.7c0,27.6,0,55.3,0,82.9c0,4.7,0,9.4-0.2,14c-0.2,4.5-0.8,5.2-5.4,5.3c-11,0.2-22,0.2-33,0.2
		c-11.6,0-10.7,0-10.7-11.1c0-61.3,0-122.5,0-183.8c0-1.7-0.1-3.3,0-5c0.2-5,0.6-5.6,5.9-5.6c12-0.2,24-0.1,36,0
		c7,0.1,7.1,0.2,7.2,7.3c0.1,4.7,0.1,9.3,0.1,14L1822.9,147.7L1822.9,147.7z"/>
	<path class="st0" d="M1945.3,497.1c-0.7,0-1.3,0-2,0c-7.5,0.6-12.4-2.6-16-9.3c-9.5-17.6-19.4-34.9-29.2-52.3
		c-2.4-4.3-5.4-8.2-8.1-12.3c-5.2,2.7-6.1,8.3-8.6,12.7c-10.5,18.2-20.9,36.4-31,54.7c-2.8,5-6.2,7.5-12,6.9c-4-0.4-8-0.2-11.9-0.8
		c-3.4-0.5-4.4-2.6-2.9-5.8c2-4.2,4.2-8.3,6.6-12.3c13.4-22.6,26.7-45.3,40.5-67.6c3.3-5.4,3.1-9.1-0.2-14.3
		c-13.7-22-27-44.4-40.3-66.6c-1.7-2.8-3.3-5.8-4.7-8.8c-1.3-2.7,0.2-5,2.8-5.2c5.6-0.5,11.2-0.5,16.8,0c1.9,0.2,4,2.3,5.3,4
		c2.2,2.9,4.2,6,5.9,9.2c9.1,15.5,18.1,31.1,27.1,46.6c1.3,2.3,2.6,4.7,4,6.9c1.6,2.5,2.9,2.6,4.5,0.4c1.3-1.9,2.4-4,3.6-6l32-54.1
		c1.9-3.1,3.4-7.1,7.6-7.3c5.6-0.1,11.2,0.2,16.7,1c0.7,0.1,2,2.9,1.7,4c-1.1,3.1-2.5,6.2-4.2,9c-9.5,16-19.2,32-28.8,47.9
		c-4.5,7.4-8.8,14.9-13.5,22.2c-1.7,2.7-1.4,4.8,0.1,7.3c6.9,11.4,13.7,22.8,20.4,34.3c8.6,14.6,17.2,29.3,25.7,44
		c1.2,2,2.3,4.1,3.2,6.2c1,2.7-0.1,4.6-3,5c-2.6,0.4-5.3,0.4-8,0.6L1945.3,497.1z"/>
	<path class="st0" d="M1635.2,166.6c0-8,0-15.9,0-23.9c0-17.3,0-34.6,0.1-51.9c0-9.4,0.1-9.5,9.1-9.6c9.6,0,19.3,0.1,28.9,0.1
		c10.6,0,10.1-0.3,10.1,10.6c0,49.2,0,98.4,0,147.6c0,1.7,0.1,3.3,0,5c-0.3,4.6-0.8,5.2-5.1,5.4c-3,0.2-6,0.1-9,0.1
		c-9.3,0-18.6,0.1-27.9,0c-5.4-0.1-5.8-0.6-6-5.6c0-1,0-2,0-3v-74.8L1635.2,166.6z"/>
	<path class="st0" d="M1537.4,459.3c0-9-0.1-18,0-27c0.1-4.7-1-9.3-3.1-13.4c-14.7-29.1-29.2-58.3-43.7-87.5
		c-1.2-2.4-2.4-4.8-3.4-7.2c-2.6-6.3-1.3-8.2,5.7-8.8c1.7-0.1,3.3,0,5-0.1c7.1-0.5,11.7,2.3,14.8,9c9.3,19.9,19.2,39.5,28.8,59.2
		c2,4.2,4,8.4,6.2,12.5c1.2,2.4,3.3,2.5,4.5,0.2c2.2-4.1,4.1-8.3,6.2-12.5c9.6-19.7,19.2-39.5,28.8-59.2c1.7-3.5,3.1-8.1,7.7-8.4
		c5.9-0.4,11.8,0.1,17.8,0.6c0.6,0,1.7,2.2,1.5,3.1c-0.5,1.9-1.2,3.8-2.2,5.5c-15.7,31.2-31.5,62.4-47.3,93.5
		c-2.5,4.7-3.7,10-3.6,15.3c0.2,17.3,0.1,34.6,0.1,51.9c0,10-2.5,12.4-12.3,11.5c-2-0.2-3.9-0.6-5.9-1.1c-3.7-1-5.4-3.4-5.4-7.3
		C1537.4,479.2,1537.3,469.2,1537.4,459.3L1537.4,459.3z"/>
	<path class="st0" d="M1493.4,181.4v-58.9c0-2,0-4,0-6c0-2.9,1.5-4.2,4.3-4.2c13.3,0,26.6,0.1,39.9,0.1c2.3,0,3.7,1.2,3.7,3.7
		c0.1,2,0.1,4,0.1,6c0,39.6,0,79.2,0,118.7c0,1.7,0,3.3,0,5c0,2.9-1.6,4.2-4.3,4.2c-13.3,0-26.6,0-39.9-0.1c-0.2,0-0.4,0-0.7,0
		c-1.9-0.2-3.2-1.8-3.1-3.7c-0.1-2.3-0.1-4.7-0.1-7C1493.3,220,1493.3,200.7,1493.4,181.4L1493.4,181.4z"/>
	<path class="st0" d="M1670.8,414.7c0-23,0-46,0-68.9c0-2.3,0.2-4.7-0.3-7c-0.5-1.5-1.6-2.6-3.1-3.1c-2.7-0.4-5.3-0.5-8-0.3
		c-11,0-22,0.1-33,0.1c-3.3,0-7,0.3-8.6-3.5c-1.8-4-1.9-8.5-0.3-12.6c0.8-1.4,2.2-2.4,3.8-2.8c2.3-0.4,4.7-0.5,7-0.4
		c36.7,0,73.3,0,109.9,0h1c10.2,0.1,12.4,2.6,11.3,12.4c-0.6,5-2.3,6.9-7.9,6.9c-11.3,0.1-22.6-0.1-34-0.1c-16.6,0-15-1.7-15,14.8
		c0,44.3-0.1,88.6-0.2,132.9c0,2,0,4-0.2,6c-0.5,6.2-1.8,7.6-7.7,8.4c-1.7,0.2-3.3,0.2-5,0.1c-7.6-0.6-9.7-2.8-9.7-10.7
		c-0.1-18,0-36,0-53.9V414.7L1670.8,414.7z"/>
	<path class="st0" d="M1410.7,404.2c0-25.6,0-51.2,0-76.9c0-10.2,3-12.9,13.1-12.3c7.1,0.5,9,2.5,9.3,10c0.2,7.3,0.2,14.6,0.2,22
		c0,40.3,0,80.5-0.1,120.8c0,1-0.1,2,0,3c0.2,7,0.5,7.4,7.4,7.4c18.7,0.1,37.3,0,55.9-0.1c7.3,0,10.2-0.5,9.8,10.6
		c-0.2,7-1.7,8.7-9,8.8c-18.3,0.2-36.6,0.2-54.9,0.2c-6,0-12,0-18-0.1c-10.9-0.3-13.6-3-13.6-13.7
		C1410.7,457.4,1410.7,430.8,1410.7,404.2z"/>
	<path class="st0" d="M1403,202.8c0,13.3,0.1,26.6,0,39.9c0,7-0.1,7.1-7.4,7.2c-5.4,0.1-10.7,0.1-16,0.1c-6.7,0-13.3,0.2-20,0
		c-5.2-0.1-5.8-0.8-6.1-5.6c-0.1-2,0-4,0-6c0-19,0-37.9,0-56.9c0-6.4-0.1-12.7,0.1-19c0.1-4.4,0.8-5.1,5.4-5.2
		c12.6-0.1,25.3-0.2,37.9-0.1c5.5,0.1,5.9,0.6,5.9,6.7c0,13,0,25.9,0,38.9L1403,202.8z"/>
	<path class="st0" d="M1772,406.2v-70.8c0-2.7-0.1-5.3,0-8c0.3-3.8-1.2-8.5,3.2-10.8c5.3-2.8,11-2.4,16.4,0c1.4,0.8,2.4,2.2,2.8,3.8
		c0.4,2.6,0.6,5.3,0.5,7.9c0.1,51.5,0.2,103,0.3,154.5c0,0.7,0,1.3,0,2c-0.5,3.8,1.5,8.7-2.8,10.9c-5.5,2.8-11.9,2.8-17.3,0
		c-1.4-0.9-2.3-2.3-2.6-3.9c-0.4-3-0.5-6-0.4-9C1772.1,457.3,1772.1,431.7,1772,406.2L1772,406.2z"/>
	<path class="st0" d="M1212.8,223.7c0-7.3-0.2-14.6,0-21.9c0.1-4.7,0.7-5.5,5-5.5c12.9-0.1,25.9-0.1,38.8,0c4.5,0,5.3,0.8,5.3,5.3
		c0.1,14.3,0,28.5,0,42.8c0,0.7-0.1,1.3-0.1,2c-0.3,2.3-1.6,3.6-3.9,3.6c-13.6,0.1-27.2,0.1-40.8,0.1c-2.9,0-4.2-1.7-4.2-4.4
		C1212.8,238.4,1212.8,231.1,1212.8,223.7L1212.8,223.7z"/>
	<path class="st0" d="M1098.6,250c-7,0-13.9,0-20.9,0c-2.8,0-4.4-1.1-4.4-4.1c-0.1-7.6-0.2-15.3-0.1-22.9c0.1-4.5,0.7-5.2,5.3-5.2
		c13.3-0.1,26.5,0,39.8,0c3.2,0,5,1.1,5,4.6c-0.1,7.6-0.1,15.3,0,22.9c0,3.4-1.6,4.7-4.8,4.7C1111.9,250.1,1105.3,250.1,1098.6,250
		L1098.6,250z"/>
	<path class="st0" d="M1053.9,479.5c-1.8-6.4-3.9-12.7-6.2-19c-19.6-53.1-39.3-106.1-59-159.1c-27.6-74.2-55.1-148.5-82.7-222.7
		c-7.3-19.6-14.7-39.3-21.7-59.1c-3.7-10.5-10.5-17-21.6-18c-8.9-0.8-18-1.3-26.8-0.4c-12.1,1.3-20.4,7.7-24.7,20
		C801,50.8,789.8,80,779,109.3c-20.7,56.2-41.5,112.4-62.2,168.6c-22.5,60.8-45.1,121.7-67.7,182.5c-2.7,7.2-4.8,14.5-6.5,22
		c-1.5,7.1,1.7,12.5,8.4,15.1c3.4,1.3,7,2.1,10.7,2.4c7,0.4,14,0.4,21,0.1c12-0.4,19.6-6.6,23.5-18.1
		c12.3-36.2,24.9-72.4,37.3-108.6c3.6-10.4,3.4-10.5,14.5-10.5l112.9-0.1c23,0,46,0,69,0c7.9,0,8,0.1,10.7,7.5
		c4.9,13.4,9.7,26.9,14.5,40.4c8.5,23.5,17.2,46.9,25.3,70.5c4.4,12.8,13.2,18.6,26.2,19c2.7,0.1,5.3,0,8,0c0,0.2,0,0.4,0.1,0.6
		c5.9-0.6,12-0.7,17.8-2C1053,496.4,1056.8,489.8,1053.9,479.5z M926.5,309.8c-2.7,0.2-5.3,0.1-8,0.1h-70.9v0.1h-70.9
		c-2.7,0-5.3,0-8-0.1c-3.3-0.3-4.3-1.4-3.4-4.5s2.1-6.3,3.2-9.4c19.1-53.6,38.2-107.1,57.3-160.7c6.2-17.2,12.3-34.4,18.5-51.6
		c0.4-0.9,0.9-1.7,1.5-2.5c0.8,1,2,1.8,2.5,3c3.2,8.4,6.3,16.8,9.4,25.3l69.6,190.2c0.7,1.9,1.5,3.7,2,5.6
		C930.4,308.5,929.8,309.5,926.5,309.8z"/>
	<path class="st0" d="M663.7,105.8c-10.6-42.1-36.2-71.9-76.3-89C564.7,7.2,540.7,3,516.3,2.5C480.6,1.9,445,2.1,409.3,2.1
		c-4.6,0-9.3,0.7-13.7,2c-11.1,3.1-17.3,10.9-18.3,22.3c-0.4,4.3-0.3,8.7-0.3,13c0,71.9,0,143.9,0,215.8V479c0,2,0,4,0,6
		c-0.1,6.1,3.2,10,8.5,12.3c3,1.4,6.3,2.2,9.6,2.5c8.3,0.4,16.6,0.3,24.9,0.1c2.6-0.1,5.2-1.1,7.7-1.9c6.1-1.9,9.4-6.2,10.1-12.3
		c0.4-4,0.6-8,0.5-12c0.1-52.6,0.1-105.2,0.1-157.9c0-11-0.4-10.1,10.5-10.1c20,0,40,0.6,60,0c28.2-0.9,55.4-6.2,80.8-19.5
		c34.9-18.2,58.3-46,70.8-82.8C671.5,171.3,671.9,138.4,663.7,105.8z M600.2,190.6c-4.9,16.1-15,30.1-28.7,39.8
		c-12.7,9.2-27.3,15.4-42.8,18.2c-16.9,3.1-33.8,2.7-50.8,2.9c-11.3,0.1-22.6,0-34-0.3c-4.6-0.1-5.1-0.8-5.3-5.3c-0.2-3-0.1-6-0.1-9
		c0-56.6,0-113.2,0-169.8c0-2,0-4,0-6c0.1-2.3,1.3-3.7,3.6-3.9c2-0.1,4-0.1,6-0.1h35c17.3,0,34.6-0.2,51.8,2.7
		c13,2.2,24.9,7.1,36.2,13.7c14.6,8.6,23.2,21.9,28.2,37.5C607.6,137.3,608.5,164.1,600.2,190.6L600.2,190.6z"/>
	<path class="st0" d="M1387.8,491.5c-1.8-5.4-3.8-10.6-5.8-16c-17.9-49.1-35.8-98.1-53.7-147.2c-4.4-12-5.4-12.9-17.8-12.9
		c-1,0-2,0-3,0c-9.6,0.3-11.2,1.3-14.6,10.5c-19.2,52.8-38.4,105.7-57.5,158.5c-4.3,12-3.3,13.2,10,13c8.3-0.1,9.7-1,12.5-8.6
		c4.1-11.3,8.1-22.5,12.2-33.8c2.7-7.5,2.7-7.6,10.5-7.6c19.3-0.1,38.6-0.1,58-0.1c1,0,2,0.1,3,0c3.9-0.2,6.1,1.5,7.3,5.3
		c2.6,7.9,5.4,15.7,8.2,23.5c1.7,4.7,3.6,9.3,5.3,14c1.5,4.3,4.5,6.4,8.9,6.8c2,0.2,4,0.4,4.5,0.4c3.1,0,4.8,0,6.4,0
		c0.7,0,1.3-0.1,2-0.3C1387.8,496.4,1388.9,494.8,1387.8,491.5z M1334.1,429.1c-6.3,0.1-12.6,0-18.9,0h-6V429c-8,0-15.9,0.1-23.9,0
		c-5.4-0.1-6-0.8-4.4-5.8c2.9-9.2,6-18.3,9.1-27.4c5.1-14.7,10.2-29.5,15.4-44.1c0.9-2.5,2-4.9,3.2-7.3c0.6-0.3,1.4-0.2,2,0.1
		c0.7,1.1,1.3,2.3,1.6,3.6c8.2,24.2,16.4,48.4,24.5,72.6c0.3,0.9,0.7,1.9,0.9,2.8C1339,428.1,1338.5,429,1334.1,429.1z"/>
</g>
</svg>
